<?xml version="1.0" encoding="UTF-8"?>
<svg id="Layer_2" data-name="Layer 2" xmlns="http://www.w3.org/2000/svg" viewBox="0 0 258.68 95.62">
  <defs>
    <style>
      .cls-1 {
        letter-spacing: -.07em;
      }

      .cls-2 {
        font-family: Helvetica-Bold, Helvetica;
        font-size: 21px;
        font-weight: 700;
      }

      .cls-3 {
        letter-spacing: 0em;
      }

      .cls-4 {
        fill: #06798a;
      }

      .cls-5 {
        fill: #0f4971;
      }

      .cls-6 {
        fill: none;
      }

      .cls-7 {
        fill: #1279a7;
      }

      .cls-8 {
        fill: #27a3bb;
      }

      .cls-9 {
        fill: #0a4f5d;
      }

      .cls-10 {
        fill: #2f5f98;
      }

      .cls-11 {
        fill: #abd58b;
      }

      .cls-12 {
        fill: #0b4871;
      }
    </style>
  </defs>
  <g>
    <g>
      <path class="cls-10" d="m58.48,37.78v13.62c6.48,4.03,14.11,6.37,22.26,6.37.38,0,.75,0,1.13-.02l.06-1.98v-10.23c0-4.29-3.48-7.77-7.77-7.77h-14.99c-.23,0-.46.01-.69.01Z"/>
      <path class="cls-9" d="m39.32,24.68c1.06,4.68,2.92,9.1,5.43,13.09,3.46,5.5,8.17,10.18,13.72,13.63v-13.62c-.2,0-.39,0-.59-.01-8.21-.26-15.53-5.42-18.56-13.09Z"/>
      <path class="cls-10" d="m39.23,24.45c.03.08.06.16.09.24-.02-.08-.04-.16-.05-.23h-.04Z"/>
      <path class="cls-4" d="m58.48,37.78v13.62c6.48,4.03,14.11,6.37,22.26,6.37h1.19s0-12.23,0-12.23c0-4.29-3.48-7.77-7.77-7.77h-14.99c-.23,0-.46.01-.69.01Z"/>
      <path class="cls-11" d="m38.48,14.23v5.03c.16,1.76.42,3.49.8,5.19.02.08.03.16.05.23,3.03,7.66,10.35,12.83,18.56,13.09.2,0,.4.01.59.01v-15.77c0-4.29-3.48-7.77-7.77-7.77h-12.23Z"/>
      <path class="cls-10" d="m39.23,24.45c.03.08.06.16.09.24-.02-.08-.04-.16-.05-.23h-.04Z"/>
      <path class="cls-10" d="m38.05,57.98v-13.62c-6.48-4.03-14.11-6.37-22.26-6.37-.38,0-.75,0-1.13.02l-.06,1.98v10.23c0,4.29,3.48,7.77,7.77,7.77h14.99c.23,0,.46-.01.69-.01Z"/>
      <path class="cls-12" d="m57.2,71.08c-1.06-4.68-2.92-9.1-5.43-13.09-3.46-5.5-8.17-10.18-13.72-13.63v13.62c.2,0,.39,0,.59.01,8.21.26,15.53,5.42,18.56,13.09Z"/>
      <path class="cls-10" d="m57.3,71.31c-.03-.08-.06-.16-.09-.24.02.08.04.16.05.23h.04Z"/>
      <path class="cls-8" d="m38.05,57.98v-13.62c-6.48-4.03-14.11-6.37-22.26-6.37h-1.19s0,12.23,0,12.23c0,4.29,3.48,7.77,7.77,7.77h14.99c.23,0,.46-.01.69-.01Z"/>
      <path class="cls-7" d="m58.05,81.53v-5.03c-.16-1.76-.42-3.49-.8-5.19-.02-.08-.03-.16-.05-.23-3.03-7.66-10.35-12.83-18.56-13.09-.2,0-.4-.01-.59-.01v15.77c0,4.29,3.48,7.77,7.77,7.77h12.23Z"/>
      <path class="cls-10" d="m57.3,71.31c-.03-.08-.06-.16-.09-.24.02.08.04.16.05.23h.04Z"/>
    </g>
    <circle class="cls-5" cx="25.42" cy="26.01" r="6.6"/>
  </g>
  <text class="cls-2" transform="translate(86.87 57.72)"><tspan x="0" y="0">HEA</tspan><tspan class="cls-1" x="44.34" y="0">L</tspan><tspan class="cls-3" x="55.62" y="0">TH PULSE</tspan></text>
  <rect class="cls-6" width="258.68" height="95.62"/>
</svg>