<?xml version="1.0" encoding="utf-8"?>
<!-- Generator: Adobe Illustrator 27.7.0, SVG Export Plug-In . SVG Version: 6.00 Build 0)  -->
<svg version="1.1" id="Layer_1" xmlns="http://www.w3.org/2000/svg" xmlns:xlink="http://www.w3.org/1999/xlink" x="0px" y="0px"
	 viewBox="0 0 200 40" style="enable-background:new 0 0 200 40;" xml:space="preserve">
<style type="text/css">
	.st0{fill:#2F5F98;}
	.st1{fill:#0A4F5D;}
	.st2{fill:#06798A;}
	.st3{fill:#ABD58B;}
	.st4{fill:#0B4871;}
	.st5{fill:#27A3BB;}
	.st6{fill:#1279A7;}
	.st7{fill:#0F4971;}
	.st8{fill:#FFFFFF;}
	.st9{font-family:'Univers-Black';}
	.st10{font-size:26.8979px;}
	.st11{letter-spacing:-0.97;}
	.st12{fill:none;}
</style>
<g>
	<path class="st0" d="M3.63-3.78"/>
	<g>
		<g>
			<path class="st0" d="M23.65,15v6.77c3.31,2,7.2,3.17,11.37,3.17c0.19,0,0.39,0,0.57-0.01l0.02-0.98v-5.09
				c0-2.14-1.77-3.86-3.97-3.86H24C23.89,15,23.76,15,23.65,15z"/>
			<path class="st1" d="M13.86,8.49c0.54,2.33,1.49,4.52,2.77,6.51c1.77,2.73,4.17,5.07,7.02,6.78v-6.77c-0.1,0-0.2,0-0.3,0
				C19.16,14.88,15.41,12.3,13.86,8.49z"/>
			<path class="st0" d="M13.81,8.38c0.01,0.04,0.04,0.07,0.05,0.12c-0.01-0.04-0.01-0.07-0.02-0.12H13.81z"/>
			<path class="st2" d="M23.65,15v6.77c3.31,2,7.2,3.17,11.37,3.17h0.61v-6.09c0-2.14-1.77-3.86-3.97-3.86h-7.65
				C23.89,15,23.76,15,23.65,15z"/>
			<path class="st0" d="M13.81,8.38"/>
			<path class="st3" d="M13.43,3.3v2.5c0.07,0.87,0.21,1.74,0.41,2.59c0.01,0.04,0.01,0.07,0.02,0.12c1.55,3.81,5.29,6.38,9.49,6.51
				c0.1,0,0.2,0,0.3,0V7.17c0-2.14-1.77-3.86-3.97-3.86C19.68,3.3,13.43,3.3,13.43,3.3z"/>
			<path class="st0" d="M13.81,8.38c0.01,0.04,0.04,0.07,0.05,0.12c-0.01-0.04-0.01-0.07-0.02-0.12H13.81z"/>
			<path class="st0" d="M13.21,25.06v-6.77c-3.31-2-7.2-3.17-11.37-3.17c-0.19,0-0.39,0-0.57,0.01l-0.02,0.98v5.09
				c0,2.14,1.77,3.86,3.97,3.86h7.65C12.98,25.06,13.09,25.06,13.21,25.06z"/>
			<path class="st4" d="M23,31.57c-0.54-2.33-1.49-4.52-2.77-6.51c-1.77-2.73-4.17-5.07-7.02-6.78v6.77c0.1,0,0.2,0,0.3,0
				C17.71,25.19,21.45,27.76,23,31.57z"/>
			<path class="st0" d="M23.05,31.68c-0.01-0.04-0.04-0.07-0.05-0.12c0.01,0.04,0.01,0.07,0.02,0.12H23.05z"/>
			<path class="st5" d="M13.21,25.06v-6.77c-3.31-2-7.2-3.17-11.37-3.17H1.23v6.09c0,2.14,1.77,3.86,3.97,3.86h7.65
				C12.98,25.06,13.09,25.06,13.21,25.06z"/>
			<path class="st0" d="M23.05,31.68"/>
			<path class="st6" d="M23.44,36.77v-2.5c-0.07-0.87-0.21-1.74-0.41-2.59c-0.01-0.04-0.01-0.07-0.02-0.12
				c-1.55-3.81-5.29-6.38-9.49-6.51c-0.1,0-0.2,0-0.3,0v7.85c0,2.14,1.77,3.86,3.97,3.86h6.25V36.77z"/>
			<path class="st0" d="M23.05,31.68c-0.01-0.04-0.04-0.07-0.05-0.12c0.01,0.04,0.01,0.07,0.02,0.12H23.05z"/>
		</g>
		<ellipse class="st7" cx="6.76" cy="9.15" rx="3.37" ry="3.28"/>
	</g>
	<text transform="matrix(1.0277 0 0 1 37.1176 29.5654)" class="st8 st9 st10 st11">HealthPulse</text>
	<g>
		<rect x="-6.24" y="-3.78" class="st12" width="132.21" height="47.56"/>
	</g>
</g>
</svg>
