<?xml version="1.0" encoding="utf-8"?>
<!-- Generator: Adobe Illustrator 27.7.0, SVG Export Plug-In . SVG Version: 6.00 Build 0)  -->
<svg version="1.1" id="Layer_1" xmlns="http://www.w3.org/2000/svg" xmlns:xlink="http://www.w3.org/1999/xlink" x="0px" y="0px"
	 viewBox="0 0 200 40" style="enable-background:new 0 0 200 40;" xml:space="preserve">
<style type="text/css">
	.st0{fill:#2F5F98;}
	.st1{fill:#0A4F5D;}
	.st2{fill:#06798A;}
	.st3{fill:#ABD58B;}
	.st4{fill:#0B4871;}
	.st5{fill:#27A3BB;}
	.st6{fill:#1279A7;}
	.st7{fill:#0F4971;}
	.st8{enable-background:new    ;}
	.st9{fill:#FFFFFF;}
	.st10{fill:none;}
</style>
<g>
	<path class="st0" d="M4.37-0.53"/>
	<g>
		<g>
			<path class="st0" d="M22.19,16.18v6.02c2.94,1.78,6.41,2.82,10.12,2.82c0.17,0,0.34,0,0.51-0.01l0.02-0.88V19.6
				c0-1.9-1.58-3.44-3.53-3.44H22.5C22.4,16.18,22.29,16.18,22.19,16.18z"/>
			<path class="st1" d="M13.48,10.38c0.48,2.08,1.32,4.02,2.47,5.79c1.58,2.43,3.71,4.51,6.24,6.03v-6.02c-0.09,0-0.18,0-0.27,0
				C18.19,16.07,14.86,13.78,13.48,10.38z"/>
			<path class="st0" d="M13.43,10.29c0.01,0.03,0.03,0.06,0.04,0.11c-0.01-0.03-0.01-0.06-0.02-0.11H13.43z"/>
			<path class="st2" d="M22.19,16.18v6.02c2.94,1.78,6.41,2.82,10.12,2.82h0.54V19.6c0-1.9-1.58-3.44-3.53-3.44h-6.81
				C22.4,16.18,22.29,16.18,22.19,16.18z"/>
			<path class="st0" d="M13.43,10.29"/>
			<path class="st3" d="M13.09,5.77V8c0.07,0.78,0.19,1.55,0.37,2.3c0.01,0.03,0.01,0.06,0.02,0.11c1.38,3.39,4.71,5.67,8.44,5.79
				c0.09,0,0.18,0,0.27,0V9.21c0-1.9-1.58-3.44-3.53-3.44C18.65,5.77,13.09,5.77,13.09,5.77z"/>
			<path class="st0" d="M13.43,10.29c0.01,0.03,0.03,0.06,0.04,0.11c-0.01-0.03-0.01-0.06-0.02-0.11H13.43z"/>
			<path class="st0" d="M12.9,25.13v-6.02c-2.94-1.78-6.41-2.82-10.12-2.82c-0.17,0-0.34,0-0.51,0.01l-0.02,0.88v4.53
				c0,1.9,1.58,3.44,3.53,3.44h6.81C12.69,25.13,12.79,25.13,12.9,25.13z"/>
			<path class="st4" d="M21.61,30.92c-0.48-2.08-1.32-4.02-2.47-5.79c-1.58-2.43-3.71-4.51-6.24-6.03v6.02c0.09,0,0.18,0,0.27,0
				C16.9,25.24,20.23,27.52,21.61,30.92z"/>
			<path class="st0" d="M21.65,31.02c-0.01-0.03-0.03-0.06-0.04-0.11c0.01,0.03,0.01,0.06,0.02,0.11H21.65z"/>
			<path class="st5" d="M12.9,25.13v-6.02c-2.94-1.78-6.41-2.82-10.12-2.82H2.24v5.41c0,1.9,1.58,3.44,3.53,3.44h6.81
				C12.69,25.13,12.79,25.13,12.9,25.13z"/>
			<path class="st0" d="M21.65,31.02"/>
			<path class="st6" d="M22,35.54v-2.23c-0.07-0.78-0.19-1.55-0.37-2.3c-0.01-0.03-0.01-0.06-0.02-0.11
				c-1.38-3.39-4.71-5.67-8.44-5.79c-0.09,0-0.18,0-0.27,0v6.98c0,1.9,1.58,3.44,3.53,3.44H22V35.54z"/>
			<path class="st0" d="M21.65,31.02c-0.01-0.03-0.03-0.06-0.04-0.11c0.01,0.03,0.01,0.06,0.02,0.11H21.65z"/>
		</g>
		<ellipse class="st7" cx="7.16" cy="10.97" rx="3" ry="2.92"/>
	</g>
	<g>
		<g class="st8">
			<path class="st9" d="M43.79,31.75V8.91h4.29v22.84H43.79z M45.78,22.5v-4.15h13.26v4.15H45.78z M56.25,31.75V8.91h4.29v22.84
				H56.25z"/>
			<path class="st9" d="M70.75,31.99c-2.36,0-4.19-0.64-5.49-1.91s-1.95-3.07-1.95-5.4v-1.84c0-2.43,0.62-4.31,1.87-5.64
				c1.25-1.33,3.01-2,5.28-2c2.15,0,3.81,0.79,4.99,2.38c1.17,1.59,1.76,3.82,1.76,6.7v1.07H66.11v-2.91h7.2l-0.05-0.38
				c-0.12-0.93-0.41-1.66-0.88-2.18c-0.47-0.52-1.11-0.78-1.91-0.78c-1.03,0-1.83,0.31-2.4,0.93c-0.57,0.62-0.85,1.49-0.85,2.62
				v2.07c0,1.11,0.31,1.97,0.93,2.58c0.62,0.61,1.49,0.91,2.61,0.91c0.57,0,1.14-0.1,1.71-0.31s1.07-0.5,1.53-0.87l2.8,2.5
				c-0.85,0.78-1.79,1.37-2.85,1.8C72.89,31.78,71.83,31.99,70.75,31.99z"/>
			<path class="st9" d="M83.95,31.99c-1.73,0-3.03-0.41-3.9-1.24c-0.87-0.83-1.3-2.09-1.3-3.8c0-1.62,0.48-2.84,1.45-3.64
				c0.97-0.8,2.41-1.2,4.34-1.2h4.07l0.22,3.28h-4.27c-0.65,0-1.13,0.13-1.46,0.38c-0.32,0.26-0.49,0.65-0.49,1.17
				c0,0.53,0.21,0.93,0.62,1.19c0.41,0.26,1.03,0.38,1.84,0.38c1.14,0,1.99-0.13,2.55-0.39s0.85-0.67,0.85-1.23l0.33,2.37
				c-0.06,0.62-0.34,1.13-0.83,1.53c-0.49,0.4-1.09,0.7-1.81,0.9C85.45,31.89,84.71,31.99,83.95,31.99z M88.47,31.75V21.42
				c0-0.75-0.25-1.33-0.75-1.74s-1.21-0.61-2.13-0.61c-0.61,0-1.21,0.1-1.8,0.29s-1.12,0.47-1.58,0.84l-2.66-2.62
				c0.65-0.74,1.5-1.32,2.57-1.74s2.24-0.62,3.54-0.62c2.14,0,3.79,0.53,4.96,1.59c1.17,1.06,1.75,2.55,1.75,4.48v10.48H88.47z"/>
			<path class="st9" d="M99.44,8.91v17.45c0,0.39,0.11,0.69,0.34,0.91c0.22,0.22,0.55,0.33,0.96,0.33h0.72v4.15h-2.19
				c-1.3,0-2.32-0.38-3.04-1.13c-0.72-0.75-1.08-1.82-1.08-3.19V8.91H99.44z"/>
			<path class="st9" d="M101.74,19.12v-3.68h7.95v3.68H101.74z M107.53,31.83c-1.45,0-2.5-0.37-3.15-1.12
				c-0.65-0.74-0.97-1.81-0.97-3.2V10.7h4.29v15.74c0,0.39,0.08,0.69,0.24,0.91s0.39,0.33,0.69,0.33h1.06v4.15H107.53z"/>
			<path class="st9" d="M112,31.75V8.91h4.29v22.84H112z M121.4,31.75v-9.88c0-0.81-0.23-1.43-0.68-1.86
				c-0.45-0.43-1.1-0.65-1.93-0.65c-0.79,0-1.41,0.22-1.84,0.67c-0.43,0.45-0.65,1.07-0.65,1.88l-0.33-3.61
				c0.47-0.98,1.04-1.74,1.71-2.28s1.55-0.8,2.62-0.8c1.71,0,3.04,0.58,3.98,1.74s1.41,2.79,1.41,4.91v9.9H121.4z"/>
			<path class="st9" d="M128.78,31.75V8.91h4.29v22.84H128.78z M130.74,22.89v-4.15h7.28c0.77,0,1.4-0.26,1.88-0.78
				c0.48-0.52,0.72-1.2,0.72-2.05c0-0.87-0.24-1.56-0.71-2.08c-0.47-0.52-1.1-0.78-1.89-0.78h-7.28V8.91h7.17
				c1.44,0,2.69,0.29,3.76,0.87c1.07,0.58,1.9,1.4,2.5,2.44c0.59,1.05,0.89,2.28,0.89,3.69c0,1.4-0.3,2.63-0.89,3.68
				c-0.59,1.05-1.43,1.86-2.5,2.43c-1.08,0.58-2.33,0.86-3.76,0.86H130.74z"/>
			<path class="st9" d="M151.27,15.45v9.91c0,0.79,0.22,1.4,0.67,1.83s1.07,0.65,1.87,0.65s1.42-0.22,1.85-0.67
				c0.43-0.45,0.65-1.08,0.65-1.91l0.22,3.57c-0.27,0.81-0.75,1.53-1.43,2.18s-1.57,0.97-2.65,0.97c-1.74,0-3.09-0.57-4.04-1.7
				c-0.95-1.13-1.42-2.72-1.42-4.78V15.45H151.27z M156.31,31.75V15.45h4.27v16.31H156.31z"/>
			<path class="st9" d="M167.66,8.91v17.45c0,0.39,0.11,0.69,0.34,0.91c0.22,0.22,0.54,0.33,0.96,0.33h0.72v4.15h-2.19
				c-1.3,0-2.32-0.38-3.04-1.13s-1.08-1.82-1.08-3.19V8.91H167.66z"/>
			<path class="st9" d="M177.42,31.99c-1.46,0-2.85-0.2-4.17-0.59c-1.32-0.39-2.45-0.94-3.37-1.64l2.64-3.31
				c0.78,0.5,1.6,0.89,2.46,1.16c0.86,0.27,1.67,0.41,2.44,0.41c1,0,1.78-0.11,2.33-0.34c0.55-0.23,0.83-0.54,0.83-0.93
				c0-0.48-0.19-0.81-0.57-0.99c-0.38-0.18-0.88-0.3-1.5-0.35c-0.62-0.06-1.27-0.13-1.96-0.23c-0.7-0.09-1.39-0.21-2.07-0.34
				s-1.31-0.35-1.87-0.64c-0.56-0.3-1.01-0.75-1.35-1.35c-0.33-0.6-0.5-1.42-0.5-2.46c0-1.64,0.58-2.92,1.74-3.82
				s2.8-1.35,4.92-1.35c1.24,0,2.46,0.18,3.67,0.55c1.21,0.37,2.28,0.89,3.23,1.56l-2.55,3.13c-0.71-0.4-1.45-0.71-2.22-0.93
				s-1.51-0.33-2.22-0.33c-0.87,0-1.54,0.1-2.02,0.29c-0.48,0.19-0.72,0.47-0.72,0.84c0,0.31,0.17,0.55,0.5,0.71
				s0.77,0.27,1.31,0.34c0.54,0.07,1.13,0.14,1.75,0.21c0.72,0.08,1.45,0.19,2.18,0.31s1.4,0.34,2.01,0.65
				c0.61,0.31,1.1,0.79,1.48,1.43c0.38,0.64,0.56,1.52,0.56,2.64c0,1.71-0.61,3.03-1.82,3.97
				C181.35,31.52,179.63,31.99,177.42,31.99z"/>
			<path class="st9" d="M193.35,31.99c-2.36,0-4.19-0.64-5.49-1.91c-1.3-1.27-1.95-3.07-1.95-5.4v-1.84c0-2.43,0.62-4.31,1.87-5.64
				s3.01-2,5.28-2c2.15,0,3.81,0.79,4.99,2.38s1.76,3.82,1.76,6.7v1.07H188.7v-2.91h7.2l-0.05-0.38c-0.12-0.93-0.41-1.66-0.88-2.18
				s-1.11-0.78-1.91-0.78c-1.03,0-1.83,0.31-2.4,0.93c-0.57,0.62-0.85,1.49-0.85,2.62v2.07c0,1.11,0.31,1.97,0.93,2.58
				c0.62,0.61,1.49,0.91,2.61,0.91c0.57,0,1.14-0.1,1.71-0.31s1.08-0.5,1.53-0.87l2.8,2.5c-0.84,0.78-1.79,1.37-2.85,1.8
				C195.49,31.78,194.43,31.99,193.35,31.99z"/>
		</g>
	</g>
	<g>
		<rect x="-4.4" y="-0.53" class="st10" width="117.62" height="42.31"/>
	</g>
</g>
</svg>
