<?xml version="1.0" encoding="utf-8"?>
<!-- Generator: Adobe Illustrator 27.7.0, SVG Export Plug-In . SVG Version: 6.00 Build 0)  -->
<svg version="1.1" id="Layer_1" xmlns="http://www.w3.org/2000/svg" xmlns:xlink="http://www.w3.org/1999/xlink" x="0px" y="0px"
	 viewBox="0 0 164 38" style="enable-background:new 0 0 164 38;" xml:space="preserve">
<style type="text/css">
	.st0{fill:#2F5F98;}
	.st1{fill:#0A4F5D;}
	.st2{fill:#06798A;}
	.st3{fill:#ABD58B;}
	.st4{fill:#0B4871;}
	.st5{fill:#27A3BB;}
	.st6{fill:#1279A7;}
	.st7{fill:#0F4971;}
	.st8{fill:#FFFFFF;}
	.st9{font-family:'Univers-Black';}
	.st10{font-size:22.1418px;}
	.st11{letter-spacing:-1;}
	.st12{fill:none;}
</style>
<g>
	<path class="st0" d="M7.9,0.4"/>
	<g>
		<g>
			<path class="st0" d="M23.94,15.86v5.57c2.65,1.65,5.77,2.61,9.11,2.61c0.15,0,0.31,0,0.46-0.01l0.02-0.81v-4.19
				c0-1.76-1.42-3.18-3.18-3.18h-6.13C24.13,15.86,24.03,15.86,23.94,15.86z"/>
			<path class="st1" d="M16.1,10.5c0.43,1.92,1.19,3.72,2.22,5.36c1.42,2.25,3.34,4.17,5.62,5.58v-5.57c-0.08,0-0.16,0-0.24,0
				C20.34,15.76,17.34,13.64,16.1,10.5z"/>
			<path class="st0" d="M16.06,10.41c0.01,0.03,0.03,0.06,0.04,0.1c-0.01-0.03-0.01-0.06-0.02-0.1L16.06,10.41z"/>
			<path class="st2" d="M23.94,15.86v5.57c2.65,1.65,5.77,2.61,9.11,2.61h0.49v-5.01c0-1.76-1.42-3.18-3.18-3.18h-6.13
				C24.13,15.86,24.03,15.86,23.94,15.86z"/>
			<path class="st0" d="M16.06,10.41"/>
			<path class="st3" d="M15.75,6.23v2.06c0.06,0.72,0.17,1.43,0.33,2.13c0.01,0.03,0.01,0.06,0.02,0.1c1.24,3.14,4.24,5.25,7.6,5.36
				c0.08,0,0.16,0,0.24,0V9.41c0-1.76-1.42-3.18-3.18-3.18H15.75z"/>
			<path class="st0" d="M16.06,10.41c0.01,0.03,0.03,0.06,0.04,0.1c-0.01-0.03-0.01-0.06-0.02-0.1L16.06,10.41z"/>
			<path class="st0" d="M15.58,24.14v-5.57c-2.65-1.65-5.77-2.61-9.11-2.61c-0.15,0-0.31,0-0.46,0.01l-0.02,0.81v4.19
				c0,1.76,1.42,3.18,3.18,3.18h6.13C15.39,24.14,15.48,24.14,15.58,24.14z"/>
			<path class="st4" d="M23.42,29.5c-0.43-1.92-1.19-3.72-2.22-5.36c-1.42-2.25-3.34-4.17-5.62-5.58v5.57c0.08,0,0.16,0,0.24,0
				C19.18,24.25,22.18,26.36,23.42,29.5z"/>
			<path class="st0" d="M23.46,29.59c-0.01-0.03-0.03-0.06-0.04-0.1c0.01,0.03,0.01,0.06,0.02,0.1L23.46,29.59z"/>
			<path class="st5" d="M15.58,24.14v-5.57c-2.65-1.65-5.77-2.61-9.11-2.61H5.98v5.01c0,1.76,1.42,3.18,3.18,3.18h6.13
				C15.39,24.14,15.48,24.14,15.58,24.14z"/>
			<path class="st0" d="M23.46,29.59"/>
			<path class="st6" d="M23.77,33.78v-2.06c-0.06-0.72-0.17-1.43-0.33-2.13c-0.01-0.03-0.01-0.06-0.02-0.1
				c-1.24-3.14-4.24-5.25-7.6-5.36c-0.08,0-0.16,0-0.24,0v6.46c0,1.76,1.42,3.18,3.18,3.18H23.77z"/>
			<path class="st0" d="M23.46,29.59c-0.01-0.03-0.03-0.06-0.04-0.1c0.01,0.03,0.01,0.06,0.02,0.1L23.46,29.59z"/>
		</g>
		<circle class="st7" cx="10.41" cy="11.04" r="2.7"/>
	</g>
	<text transform="matrix(1 0 0 1 34.7282 27.8503)" class="st8 st9 st10 st11">HealthPulse</text>
	<g>
		<rect y="0.4" class="st12" width="105.9" height="39.15"/>
	</g>
</g>
</svg>
